<svg width="27" height="26" viewBox="0 0 27 26" fill='#fff' xmlns="http://www.w3.org/2000/svg">
<path d="M24.8088 6.61202C23.6263 4.64881 22.0223 3.09453 19.9964 1.94883C17.9703 0.803078 15.7583 0.230347 13.3589 0.230347C10.9599 0.230347 8.74718 0.803253 6.72143 1.94883C4.69538 3.09447 3.09147 4.64881 1.90899 6.61202C0.726681 8.57518 0.135498 10.719 0.135498 13.0433C0.135498 15.8354 0.976169 18.3461 2.65793 20.5761C4.33951 22.8062 6.51187 24.3494 9.17482 25.2058C9.48479 25.2615 9.71426 25.2223 9.86345 25.0891C10.0127 24.9558 10.0873 24.7888 10.0873 24.5888C10.0873 24.5554 10.0843 24.2553 10.0786 23.6879C10.0727 23.1205 10.0699 22.6256 10.0699 22.2033L9.67385 22.2697C9.42135 22.3145 9.10281 22.3335 8.71824 22.3281C8.33384 22.3229 7.9348 22.2839 7.52164 22.2113C7.1083 22.1393 6.72385 21.9725 6.36798 21.7111C6.01229 21.4497 5.75979 21.1076 5.61053 20.6852L5.43835 20.3013C5.32359 20.0457 5.14291 19.7618 4.89608 19.4505C4.64925 19.139 4.39964 18.9278 4.14714 18.8166L4.02658 18.733C3.94626 18.6774 3.87172 18.6104 3.80279 18.5326C3.73392 18.4548 3.68236 18.377 3.64792 18.2991C3.61343 18.221 3.64201 18.1571 3.73398 18.1069C3.82594 18.0567 3.99215 18.0323 4.23331 18.0323L4.57754 18.0821C4.80713 18.1267 5.09111 18.2599 5.42985 18.4825C5.76841 18.7049 6.04673 18.994 6.26485 19.3498C6.529 19.8059 6.84723 20.1535 7.22047 20.3927C7.5934 20.6319 7.96941 20.7513 8.34814 20.7513C8.72686 20.7513 9.05396 20.7234 9.32956 20.6681C9.60486 20.6125 9.86315 20.5289 10.1043 20.4177C10.2076 19.6722 10.4889 19.0994 10.9479 18.6991C10.2937 18.6325 9.70551 18.5322 9.18308 18.3987C8.66094 18.2652 8.12138 18.0484 7.56476 17.7478C7.00783 17.4476 6.54582 17.0748 6.17862 16.6301C5.81135 16.1852 5.50994 15.6011 5.2748 14.8783C5.03955 14.1552 4.92189 13.3211 4.92189 12.3757C4.92189 11.0296 5.3754 9.88415 6.28222 8.93865C5.85742 7.92666 5.89753 6.79218 6.40265 5.53534C6.73554 5.43512 7.22921 5.51033 7.88342 5.7605C8.53774 6.01078 9.01681 6.22518 9.32112 6.40294C9.62542 6.58065 9.86924 6.73123 10.0529 6.85337C11.1207 6.56428 12.2225 6.41971 13.3588 6.41971C14.4951 6.41971 15.5972 6.56428 16.665 6.85337L17.3192 6.45314C17.7667 6.18609 18.295 5.94136 18.903 5.71889C19.5114 5.49654 19.9766 5.4353 20.2981 5.53552C20.8145 6.79242 20.8605 7.92683 20.4356 8.93883C21.3423 9.88432 21.796 11.0301 21.796 12.3759C21.796 13.3212 21.6779 14.158 21.4431 14.8866C21.2079 15.6154 20.9039 16.1989 20.5309 16.6385C20.1576 17.078 19.6926 17.4478 19.136 17.7479C18.5792 18.0483 18.0395 18.2651 17.5174 18.3987C16.995 18.5323 16.4068 18.6327 15.7526 18.6994C16.3493 19.1997 16.6477 19.9895 16.6477 21.0683V24.5883C16.6477 24.7883 16.7194 24.9553 16.8631 25.0887C17.0066 25.2218 17.2331 25.2611 17.5431 25.2052C20.2064 24.349 22.3788 22.8057 24.0603 20.5756C25.7416 18.3456 26.5826 15.8349 26.5826 13.0428C26.582 10.7188 25.9905 8.57518 24.8088 6.61202Z" fill="#3A10E5"/>
</svg>
